<mxfile host="Electron" modified="2023-12-30T13:41:20.527Z" agent="Mozilla/5.0 (X11; Linux x86_64) AppleWebKit/537.36 (KHTML, like Gecko) draw.io/21.4.0 Chrome/112.0.5615.204 Electron/24.5.1 Safari/537.36" etag="tiyATN-ju3pfSNNj8kH6" version="21.4.0" type="device" pages="2">
  <diagram id="uwReOs-kJ9tKjuOq0Uet" name="项目">
    <mxGraphModel dx="1908" dy="1326" grid="1" gridSize="10" guides="1" tooltips="1" connect="1" arrows="1" fold="1" page="1" pageScale="1" pageWidth="850" pageHeight="1100" math="0" shadow="0">
      <root>
        <mxCell id="0" />
        <mxCell id="1" parent="0" />
        <mxCell id="g4bM8ncinBhJCqalQY1H-4" value="&lt;b style=&quot;font-size: 15px;&quot;&gt;&lt;br&gt;&lt;/b&gt;" style="rounded=1;whiteSpace=wrap;html=1;strokeWidth=2;fontSize=15;arcSize=4;" parent="1" vertex="1">
          <mxGeometry x="480" y="160" width="480" height="400" as="geometry" />
        </mxCell>
        <mxCell id="g4bM8ncinBhJCqalQY1H-1" value="&lt;b&gt;&lt;font style=&quot;font-size: 15px;&quot;&gt;平台主页&lt;br&gt;/user/home&lt;br&gt;&lt;/font&gt;&lt;/b&gt;" style="rounded=1;whiteSpace=wrap;html=1;strokeWidth=2;" parent="1" vertex="1">
          <mxGeometry x="240" y="320" width="160" height="80" as="geometry" />
        </mxCell>
        <mxCell id="g4bM8ncinBhJCqalQY1H-2" value="&lt;b style=&quot;font-size: 15px;&quot;&gt;器具模块&lt;br&gt;/appliance&lt;br&gt;&lt;/b&gt;" style="rounded=1;whiteSpace=wrap;html=1;strokeWidth=2;fontSize=15;" parent="1" vertex="1">
          <mxGeometry x="520" y="200" width="160" height="80" as="geometry" />
        </mxCell>
        <mxCell id="g4bM8ncinBhJCqalQY1H-5" value="&lt;b style=&quot;font-size: 15px;&quot;&gt;/service&lt;/b&gt;" style="text;html=1;align=center;verticalAlign=middle;resizable=0;points=[];autosize=1;strokeColor=none;fillColor=none;fontSize=15;" parent="1" vertex="1">
          <mxGeometry x="480" y="160" width="80" height="30" as="geometry" />
        </mxCell>
        <mxCell id="g4bM8ncinBhJCqalQY1H-6" value="&lt;b style=&quot;font-size: 15px;&quot;&gt;需求统计&lt;br&gt;/appliance&lt;br&gt;&lt;/b&gt;" style="rounded=1;whiteSpace=wrap;html=1;strokeWidth=2;fontSize=15;" parent="1" vertex="1">
          <mxGeometry x="730" y="200" width="160" height="80" as="geometry" />
        </mxCell>
      </root>
    </mxGraphModel>
  </diagram>
  <diagram id="vvuqoZCevi-w_hqXr0gQ" name="E-R">
    <mxGraphModel dx="1804" dy="663" grid="1" gridSize="10" guides="1" tooltips="1" connect="1" arrows="1" fold="1" page="1" pageScale="1" pageWidth="850" pageHeight="1100" math="0" shadow="0">
      <root>
        <mxCell id="0" />
        <mxCell id="1" parent="0" />
        <mxCell id="OL6TZUZVeT9Ssq6W3rXj-1" value="appliance&lt;br style=&quot;font-size: 14px;&quot;&gt;器具" style="rounded=0;whiteSpace=wrap;html=1;strokeWidth=2;fontStyle=1;fontSize=14;" vertex="1" parent="1">
          <mxGeometry x="160" y="160" width="120" height="40" as="geometry" />
        </mxCell>
        <mxCell id="OL6TZUZVeT9Ssq6W3rXj-2" value="appliance_send&lt;br style=&quot;font-size: 14px;&quot;&gt;器具配送方式" style="rounded=0;whiteSpace=wrap;html=1;strokeWidth=2;fontStyle=1;fontSize=14;" vertex="1" parent="1">
          <mxGeometry x="400" y="160" width="120" height="40" as="geometry" />
        </mxCell>
        <mxCell id="OL6TZUZVeT9Ssq6W3rXj-3" value="appliance_send&lt;br style=&quot;font-size: 14px;&quot;&gt;器具配送方式" style="rounded=0;whiteSpace=wrap;html=1;strokeWidth=2;fontStyle=1;fontSize=14;" vertex="1" parent="1">
          <mxGeometry x="680" y="200" width="120" height="40" as="geometry" />
        </mxCell>
        <mxCell id="OL6TZUZVeT9Ssq6W3rXj-5" style="rounded=0;orthogonalLoop=1;jettySize=auto;html=1;exitX=1;exitY=0.5;exitDx=0;exitDy=0;entryX=0;entryY=0.5;entryDx=0;entryDy=0;fontFamily=Helvetica;fontSize=12;fontColor=default;endArrow=none;endFill=0;strokeWidth=2;" edge="1" parent="1" source="OL6TZUZVeT9Ssq6W3rXj-4" target="OL6TZUZVeT9Ssq6W3rXj-1">
          <mxGeometry relative="1" as="geometry" />
        </mxCell>
        <mxCell id="OL6TZUZVeT9Ssq6W3rXj-4" value="&lt;b style=&quot;font-size: 14px;&quot;&gt;app_id&lt;br&gt;器具ID&lt;br&gt;&lt;/b&gt;" style="ellipse;whiteSpace=wrap;html=1;rounded=0;strokeColor=default;strokeWidth=2;fontFamily=Helvetica;fontSize=14;fontColor=default;fillColor=default;" vertex="1" parent="1">
          <mxGeometry x="-10" y="110" width="100" height="50" as="geometry" />
        </mxCell>
        <mxCell id="OL6TZUZVeT9Ssq6W3rXj-7" style="edgeStyle=none;shape=connector;rounded=0;orthogonalLoop=1;jettySize=auto;html=1;exitX=1;exitY=0.5;exitDx=0;exitDy=0;labelBackgroundColor=default;strokeColor=default;strokeWidth=2;fontFamily=Helvetica;fontSize=12;fontColor=default;endArrow=none;endFill=0;entryX=0;entryY=0.5;entryDx=0;entryDy=0;" edge="1" parent="1" source="OL6TZUZVeT9Ssq6W3rXj-6" target="OL6TZUZVeT9Ssq6W3rXj-1">
          <mxGeometry relative="1" as="geometry">
            <mxPoint x="160" y="220" as="targetPoint" />
          </mxGeometry>
        </mxCell>
        <mxCell id="OL6TZUZVeT9Ssq6W3rXj-6" value="&lt;b style=&quot;font-size: 14px;&quot;&gt;app_category&lt;br&gt;器具类别&lt;br&gt;&lt;/b&gt;" style="ellipse;whiteSpace=wrap;html=1;rounded=0;strokeColor=default;strokeWidth=2;fontFamily=Helvetica;fontSize=14;fontColor=default;fillColor=default;" vertex="1" parent="1">
          <mxGeometry x="-10" y="190" width="100" height="50" as="geometry" />
        </mxCell>
        <mxCell id="OL6TZUZVeT9Ssq6W3rXj-9" style="edgeStyle=none;shape=connector;rounded=0;orthogonalLoop=1;jettySize=auto;html=1;exitX=1;exitY=0.5;exitDx=0;exitDy=0;entryX=0;entryY=0.5;entryDx=0;entryDy=0;labelBackgroundColor=default;strokeColor=default;strokeWidth=2;fontFamily=Helvetica;fontSize=12;fontColor=default;endArrow=none;endFill=0;" edge="1" parent="1" source="OL6TZUZVeT9Ssq6W3rXj-8" target="OL6TZUZVeT9Ssq6W3rXj-10">
          <mxGeometry relative="1" as="geometry" />
        </mxCell>
        <mxCell id="OL6TZUZVeT9Ssq6W3rXj-8" value="&lt;b style=&quot;font-size: 14px;&quot;&gt;app_box&lt;br&gt;塑料箱&lt;br&gt;&lt;/b&gt;" style="ellipse;whiteSpace=wrap;html=1;rounded=0;strokeColor=default;strokeWidth=2;fontFamily=Helvetica;fontSize=14;fontColor=default;fillColor=default;" vertex="1" parent="1">
          <mxGeometry x="-20" y="280" width="100" height="50" as="geometry" />
        </mxCell>
        <mxCell id="OL6TZUZVeT9Ssq6W3rXj-10" value="appliance_requirement&lt;br style=&quot;font-size: 14px;&quot;&gt;器具需求" style="rounded=0;whiteSpace=wrap;html=1;strokeWidth=2;fontStyle=1;fontSize=14;" vertex="1" parent="1">
          <mxGeometry x="160" y="400" width="160" height="40" as="geometry" />
        </mxCell>
        <mxCell id="OL6TZUZVeT9Ssq6W3rXj-14" style="edgeStyle=none;shape=connector;rounded=0;orthogonalLoop=1;jettySize=auto;html=1;exitX=1;exitY=0.5;exitDx=0;exitDy=0;entryX=0;entryY=0.5;entryDx=0;entryDy=0;labelBackgroundColor=default;strokeColor=default;strokeWidth=2;fontFamily=Helvetica;fontSize=12;fontColor=default;endArrow=none;endFill=0;" edge="1" parent="1" source="OL6TZUZVeT9Ssq6W3rXj-13" target="OL6TZUZVeT9Ssq6W3rXj-10">
          <mxGeometry relative="1" as="geometry" />
        </mxCell>
        <mxCell id="OL6TZUZVeT9Ssq6W3rXj-13" value="&lt;b style=&quot;font-size: 14px;&quot;&gt;app_base&lt;br&gt;基地&lt;br&gt;&lt;/b&gt;" style="ellipse;whiteSpace=wrap;html=1;rounded=0;strokeColor=default;strokeWidth=2;fontFamily=Helvetica;fontSize=14;fontColor=default;fillColor=default;" vertex="1" parent="1">
          <mxGeometry x="-20" y="420" width="100" height="50" as="geometry" />
        </mxCell>
        <mxCell id="OL6TZUZVeT9Ssq6W3rXj-16" style="edgeStyle=none;shape=connector;rounded=0;orthogonalLoop=1;jettySize=auto;html=1;exitX=1;exitY=0.5;exitDx=0;exitDy=0;entryX=0;entryY=0.5;entryDx=0;entryDy=0;labelBackgroundColor=default;strokeColor=default;strokeWidth=2;fontFamily=Helvetica;fontSize=12;fontColor=default;endArrow=none;endFill=0;" edge="1" parent="1" source="OL6TZUZVeT9Ssq6W3rXj-15" target="OL6TZUZVeT9Ssq6W3rXj-10">
          <mxGeometry relative="1" as="geometry" />
        </mxCell>
        <mxCell id="OL6TZUZVeT9Ssq6W3rXj-15" value="&lt;b style=&quot;font-size: 14px;&quot;&gt;app_require&lt;br&gt;器具需求&lt;br&gt;&lt;/b&gt;" style="ellipse;whiteSpace=wrap;html=1;rounded=0;strokeColor=default;strokeWidth=2;fontFamily=Helvetica;fontSize=14;fontColor=default;fillColor=default;" vertex="1" parent="1">
          <mxGeometry x="-20" y="490" width="100" height="50" as="geometry" />
        </mxCell>
        <mxCell id="OL6TZUZVeT9Ssq6W3rXj-18" style="edgeStyle=none;shape=connector;rounded=0;orthogonalLoop=1;jettySize=auto;html=1;exitX=1;exitY=0.5;exitDx=0;exitDy=0;entryX=0;entryY=0.5;entryDx=0;entryDy=0;labelBackgroundColor=default;strokeColor=default;strokeWidth=2;fontFamily=Helvetica;fontSize=12;fontColor=default;endArrow=none;endFill=0;" edge="1" parent="1" source="OL6TZUZVeT9Ssq6W3rXj-17" target="OL6TZUZVeT9Ssq6W3rXj-10">
          <mxGeometry relative="1" as="geometry" />
        </mxCell>
        <mxCell id="OL6TZUZVeT9Ssq6W3rXj-17" value="&lt;b style=&quot;font-size: 14px;&quot;&gt;req_id&lt;br&gt;需求ID&lt;br&gt;&lt;/b&gt;" style="ellipse;whiteSpace=wrap;html=1;rounded=0;strokeColor=default;strokeWidth=2;fontFamily=Helvetica;fontSize=14;fontColor=default;fillColor=default;" vertex="1" parent="1">
          <mxGeometry x="-20" y="350" width="100" height="50" as="geometry" />
        </mxCell>
        <mxCell id="OL6TZUZVeT9Ssq6W3rXj-21" style="edgeStyle=none;shape=connector;rounded=0;orthogonalLoop=1;jettySize=auto;html=1;exitX=0;exitY=0.5;exitDx=0;exitDy=0;entryX=1;entryY=0.5;entryDx=0;entryDy=0;labelBackgroundColor=default;strokeColor=default;strokeWidth=2;fontFamily=Helvetica;fontSize=12;fontColor=default;endArrow=none;endFill=0;" edge="1" parent="1" source="OL6TZUZVeT9Ssq6W3rXj-20" target="OL6TZUZVeT9Ssq6W3rXj-2">
          <mxGeometry relative="1" as="geometry" />
        </mxCell>
        <mxCell id="OL6TZUZVeT9Ssq6W3rXj-20" value="&lt;b style=&quot;font-size: 14px;&quot;&gt;suporter&lt;br&gt;供应商&lt;br&gt;&lt;/b&gt;" style="ellipse;whiteSpace=wrap;html=1;rounded=0;strokeColor=default;strokeWidth=2;fontFamily=Helvetica;fontSize=14;fontColor=default;fillColor=default;" vertex="1" parent="1">
          <mxGeometry x="600" y="80" width="100" height="50" as="geometry" />
        </mxCell>
      </root>
    </mxGraphModel>
  </diagram>
</mxfile>
